<svg width="42" height="42" viewBox="0 0 42 42" fill="none" xmlns="http://www.w3.org/2000/svg">
<path d="M33.8125 9.73383C33.5467 9.59647 33.288 9.44589 33.0373 9.28266C32.3082 8.80069 31.6398 8.23278 31.0464 7.59117C29.5616 5.89231 29.0071 4.16883 28.8028 2.96215H28.811C28.6404 1.96055 28.711 1.3125 28.7216 1.3125H21.959V27.4624C21.959 27.8135 21.959 28.1605 21.9442 28.5034C21.9442 28.5461 21.9401 28.5854 21.9376 28.6314C21.9376 28.6502 21.9376 28.6699 21.9335 28.6896V28.7044C21.8622 29.6426 21.5615 30.549 21.0577 31.3437C20.5539 32.1385 19.8625 32.7972 19.0444 33.262C18.1917 33.7471 17.2273 34.0016 16.2463 34.0003C13.0955 34.0003 10.5419 31.4311 10.5419 28.2581C10.5419 25.0852 13.0955 22.5159 16.2463 22.5159C16.8427 22.5154 17.4355 22.6092 18.0026 22.794L18.0108 15.9083C16.2893 15.6859 14.5403 15.8228 12.8743 16.3101C11.2083 16.7975 9.66136 17.6249 8.33111 18.74C7.1655 19.7528 6.18557 20.9612 5.43541 22.3109C5.14994 22.803 4.07287 24.7808 3.94244 27.9907C3.86041 29.8126 4.40756 31.7002 4.66841 32.4803V32.4967C4.83248 32.9561 5.46822 34.5237 6.50427 35.8452C7.33971 36.9053 8.32675 37.8365 9.43361 38.6088V38.5924L9.45002 38.6088C12.7239 40.8335 16.3538 40.6875 16.3538 40.6875C16.9821 40.6621 19.087 40.6875 21.4774 39.5547C24.1287 38.2988 25.6381 36.4276 25.6381 36.4276C26.6023 35.3096 27.3691 34.0355 27.9054 32.6599C28.5174 31.0513 28.7216 29.1219 28.7216 28.3508V14.4777C28.8036 14.5269 29.8963 15.2496 29.8963 15.2496C29.8963 15.2496 31.4705 16.2586 33.9265 16.9157C35.6885 17.3832 38.0625 17.4817 38.0625 17.4817V10.7682C37.2307 10.8585 35.5417 10.596 33.8125 9.73383Z" fill="white"/>
</svg>
