<svg width="90" height="103" viewBox="0 0 90 103" fill="none" xmlns="http://www.w3.org/2000/svg">
<path d="M2.64925 22.2306C1.18611 19.2574 2.40859 15.6577 5.37973 14.1903L16.0099 8.9406L47.5803 73.0935L31.5703 81L2.64925 22.2306Z" fill="#E85D04"/>
<path d="M28.2242 22.2306C26.7611 19.2574 27.9836 15.6577 30.9547 14.1904L41.5849 8.94061L73.1552 73.0935L57.1453 81L28.2242 22.2306Z" fill="#E85D04"/>
<path d="M49.6438 60.5575C48.1807 63.5307 49.4032 67.1305 52.3743 68.5978L63.0045 73.8475L90 18.991L73.9901 11.0845L49.6438 60.5575Z" fill="#E85D04"/>
<path d="M64.6823 3.41478L64.6813 3.41379C63.7777 2.52888 62.7126 1.82658 61.5441 1.34519L61.5426 1.3446C60.3269 0.839362 59.0367 0.583818 57.7044 0.583818C56.3721 0.583818 55.0817 0.839348 53.8655 1.34209L64.6823 3.41478ZM64.6823 3.41478C65.5818 4.29071 66.3015 5.33463 66.8006 6.48766C67.3173 7.68208 67.5795 8.95 67.5795 10.2565C67.5795 12.1503 67.128 14.0365 66.2281 15.8638L66.2275 15.865C65.507 17.3383 64.4964 18.7846 63.2149 20.1612L63.2147 20.1614C61.0204 22.5212 58.7167 23.9652 58.072 24.3462L58.0706 24.347C57.9585 24.4137 57.8327 24.4471 57.7016 24.4471H57.7007C57.5709 24.4473 57.4434 24.4125 57.3315 24.3463L57.3313 24.3462M64.6823 3.41478L57.3313 24.3462M50.7268 3.4117L50.7267 3.41178C49.8276 4.28834 49.108 5.33231 48.608 6.48515C48.0915 7.67948 47.8293 8.94731 47.8293 10.2538C47.8293 12.1448 48.2808 14.0342 49.1757 15.865L50.7268 3.4117ZM50.7268 3.4117C51.6353 2.52551 52.689 1.82897 53.8653 1.34216L50.7268 3.4117ZM57.3313 24.3462C56.6866 23.9652 54.383 22.5212 52.1887 20.1616M57.3313 24.3462L52.1887 20.1616M54.0807 10.4768C54.08 10.9535 54.1734 11.4257 54.3555 11.8662C54.5376 12.3068 54.805 12.707 55.1421 13.0438L55.1425 13.0441C55.8265 13.7262 56.7368 14.1064 57.7043 14.1065M54.0807 10.4768C54.0808 9.5085 54.4601 8.5972 55.1408 7.91207L55.1416 7.91123C55.8268 7.22486 56.7379 6.84806 57.7044 6.84806C58.6709 6.84806 59.582 7.22486 60.2672 7.91123C60.9523 8.59756 61.3281 9.50982 61.3281 10.4773C61.3281 11.4447 60.9523 12.3569 60.2673 13.0432C59.9312 13.3808 59.5317 13.6485 59.0918 13.831C58.6519 14.0135 58.1804 14.1071 57.7043 14.1065M54.0807 10.4768C54.0807 10.4769 54.0807 10.4771 54.0807 10.4773H54.5807L54.0807 10.4765C54.0807 10.4766 54.0807 10.4767 54.0807 10.4768ZM57.7043 14.1065C57.7043 14.1065 57.7044 14.1065 57.7044 14.1065V13.6065L57.7036 14.1065C57.7038 14.1065 57.7041 14.1065 57.7043 14.1065ZM52.1887 20.1616C50.9067 18.7817 49.8961 17.3381 49.1758 15.8651L52.1887 20.1616ZM57.4358 23.2258L57.7044 23.3969L57.973 23.2258C58.9129 22.6272 61.0489 21.1457 62.9549 18.947C64.8591 16.7506 66.5714 13.7939 66.5714 10.2565C66.5714 7.94359 65.6484 5.77003 63.9777 4.13779C62.3017 2.4975 60.0728 1.59545 57.7044 1.59545C55.3358 1.59545 53.1071 2.49758 51.4311 4.13502L51.4308 4.13532C49.7604 5.77016 48.8374 7.94351 48.8374 10.2565C48.8374 13.7939 50.5497 16.7506 52.4539 18.947C54.3599 21.1457 56.4959 22.6272 57.4358 23.2258ZM53.2957 10.4773C53.2957 8.03687 55.2705 6.05994 57.7044 6.05994C60.1383 6.05994 62.1131 8.03687 62.1131 10.4773C62.1131 12.9177 60.1383 14.8946 57.7044 14.8946C55.2705 14.8946 53.2957 12.9177 53.2957 10.4773Z" fill="#E85D04" stroke="#E85D04"/>
<path d="M12.5039 97.207L14.3384 90.7578H15.2271L14.7129 93.2651L12.7388 100H11.8564L12.5039 97.207ZM10.606 90.7578L12.0659 97.0801L12.5039 100H11.6279L9.38721 90.7578H10.606ZM17.6011 97.0737L19.0293 90.7578H20.2544L18.02 100H17.144L17.6011 97.0737ZM15.3604 90.7578L17.144 97.207L17.7915 100H16.9092L15.0049 93.2651L14.4844 90.7578H15.3604ZM22.7109 93.1318V100H21.5303V93.1318H22.7109ZM21.4414 91.3101C21.4414 91.1196 21.4985 90.9588 21.6128 90.8276C21.7313 90.6965 21.9048 90.6309 22.1333 90.6309C22.3576 90.6309 22.529 90.6965 22.6475 90.8276C22.7702 90.9588 22.8315 91.1196 22.8315 91.3101C22.8315 91.492 22.7702 91.6486 22.6475 91.7798C22.529 91.9067 22.3576 91.9702 22.1333 91.9702C21.9048 91.9702 21.7313 91.9067 21.6128 91.7798C21.4985 91.6486 21.4414 91.492 21.4414 91.3101ZM25.7769 90.25V100H24.5962V90.25H25.7769ZM29.9727 93.1318L26.9766 96.3374L25.3008 98.0767L25.2056 96.8262L26.4053 95.3916L28.5381 93.1318H29.9727ZM28.8999 100L26.4497 96.7246L27.0591 95.6772L30.2837 100H28.8999ZM30.874 96.6421V96.4961C30.874 96.001 30.946 95.5418 31.0898 95.1187C31.2337 94.6912 31.4411 94.321 31.7119 94.0078C31.9827 93.6904 32.3107 93.445 32.6958 93.2715C33.0809 93.0938 33.5125 93.0049 33.9907 93.0049C34.4731 93.0049 34.9069 93.0938 35.292 93.2715C35.6813 93.445 36.0114 93.6904 36.2822 94.0078C36.5573 94.321 36.7668 94.6912 36.9106 95.1187C37.0545 95.5418 37.1265 96.001 37.1265 96.4961V96.6421C37.1265 97.1372 37.0545 97.5964 36.9106 98.0195C36.7668 98.4427 36.5573 98.813 36.2822 99.1304C36.0114 99.4435 35.6834 99.689 35.2983 99.8667C34.9175 100.04 34.4858 100.127 34.0034 100.127C33.521 100.127 33.0872 100.04 32.7021 99.8667C32.3171 99.689 31.987 99.4435 31.7119 99.1304C31.4411 98.813 31.2337 98.4427 31.0898 98.0195C30.946 97.5964 30.874 97.1372 30.874 96.6421ZM32.0483 96.4961V96.6421C32.0483 96.9849 32.0885 97.3086 32.1689 97.6133C32.2493 97.9137 32.37 98.1803 32.5308 98.4131C32.6958 98.6458 32.901 98.8299 33.1465 98.9653C33.3919 99.0965 33.6776 99.1621 34.0034 99.1621C34.325 99.1621 34.6064 99.0965 34.8477 98.9653C35.0931 98.8299 35.2962 98.6458 35.457 98.4131C35.6178 98.1803 35.7384 97.9137 35.8188 97.6133C35.9035 97.3086 35.9458 96.9849 35.9458 96.6421V96.4961C35.9458 96.1576 35.9035 95.8381 35.8188 95.5376C35.7384 95.2329 35.6157 94.9642 35.4507 94.7314C35.2899 94.4945 35.0868 94.3083 34.8413 94.1729C34.6001 94.0374 34.3166 93.9697 33.9907 93.9697C33.6691 93.9697 33.3856 94.0374 33.1401 94.1729C32.8989 94.3083 32.6958 94.4945 32.5308 94.7314C32.37 94.9642 32.2493 95.2329 32.1689 95.5376C32.0885 95.8381 32.0483 96.1576 32.0483 96.4961ZM41.4746 93.1318V94.0332H37.7612V93.1318H41.4746ZM39.0181 91.4624H40.1924V98.2988C40.1924 98.5316 40.2284 98.7072 40.3003 98.8257C40.3722 98.9442 40.4653 99.0225 40.5796 99.0605C40.6938 99.0986 40.8166 99.1177 40.9478 99.1177C41.0451 99.1177 41.1466 99.1092 41.2524 99.0923C41.3625 99.0711 41.445 99.0542 41.5 99.0415L41.5063 100C41.4132 100.03 41.2905 100.057 41.1382 100.083C40.9901 100.112 40.8102 100.127 40.5986 100.127C40.3109 100.127 40.0464 100.07 39.8052 99.9556C39.564 99.8413 39.3714 99.6509 39.2275 99.3843C39.0879 99.1134 39.0181 98.7495 39.0181 98.2925V91.4624ZM46.9019 98.8257V95.29C46.9019 95.0192 46.8468 94.7843 46.7368 94.5854C46.631 94.3823 46.4702 94.2257 46.2544 94.1157C46.0386 94.0057 45.772 93.9507 45.4546 93.9507C45.1584 93.9507 44.8981 94.0015 44.6738 94.103C44.4538 94.2046 44.2803 94.3379 44.1533 94.5029C44.0306 94.668 43.9692 94.8457 43.9692 95.0361H42.7949C42.7949 94.7907 42.8584 94.5474 42.9854 94.3062C43.1123 94.0649 43.2943 93.847 43.5312 93.6523C43.7725 93.4535 44.0602 93.2969 44.3945 93.1826C44.7331 93.0641 45.1097 93.0049 45.5244 93.0049C46.0238 93.0049 46.4639 93.0895 46.8447 93.2588C47.2298 93.4281 47.5303 93.6841 47.7461 94.0269C47.9661 94.3654 48.0762 94.7907 48.0762 95.3027V98.502C48.0762 98.7305 48.0952 98.9738 48.1333 99.2319C48.1756 99.4901 48.237 99.7122 48.3174 99.8984V100H47.0923C47.033 99.8646 46.9865 99.6847 46.9526 99.4604C46.9188 99.2319 46.9019 99.0203 46.9019 98.8257ZM47.105 95.8359L47.1177 96.6611H45.9307C45.5964 96.6611 45.298 96.6886 45.0356 96.7437C44.7733 96.7944 44.5532 96.8727 44.3755 96.9785C44.1978 97.0843 44.0623 97.2176 43.9692 97.3784C43.8761 97.535 43.8296 97.7191 43.8296 97.9307C43.8296 98.1465 43.8783 98.3433 43.9756 98.521C44.0729 98.6987 44.2189 98.8405 44.4136 98.9463C44.6125 99.0479 44.8558 99.0986 45.1436 99.0986C45.5033 99.0986 45.8206 99.0225 46.0957 98.8701C46.3708 98.7178 46.5887 98.5316 46.7495 98.3115C46.9146 98.0915 47.0034 97.8778 47.0161 97.6704L47.5176 98.2354C47.488 98.4131 47.4076 98.6099 47.2764 98.8257C47.1452 99.0415 46.9696 99.2489 46.7495 99.4478C46.5337 99.6424 46.2756 99.8053 45.9751 99.9365C45.6789 100.063 45.3446 100.127 44.9722 100.127C44.5067 100.127 44.0983 100.036 43.7471 99.854C43.4001 99.672 43.1292 99.4287 42.9346 99.124C42.7441 98.8151 42.6489 98.4702 42.6489 98.0894C42.6489 97.7212 42.7209 97.3975 42.8647 97.1182C43.0086 96.8346 43.216 96.5998 43.4868 96.4136C43.7576 96.2231 44.0835 96.0793 44.4644 95.9819C44.8452 95.8846 45.2705 95.8359 45.7402 95.8359H47.105ZM51.0977 94.5981V100H49.9233V93.1318H51.0342L51.0977 94.5981ZM50.8184 96.3057L50.3296 96.2866C50.3338 95.8169 50.4036 95.3831 50.5391 94.9854C50.6745 94.5833 50.8649 94.2342 51.1104 93.938C51.3558 93.6418 51.6478 93.4132 51.9863 93.2524C52.3291 93.0874 52.7078 93.0049 53.1226 93.0049C53.4611 93.0049 53.7658 93.0514 54.0366 93.1445C54.3075 93.2334 54.5381 93.3773 54.7285 93.5762C54.9232 93.7751 55.0713 94.0332 55.1729 94.3506C55.2744 94.6637 55.3252 95.0467 55.3252 95.4995V100H54.1445V95.4868C54.1445 95.1271 54.0916 94.8394 53.9858 94.6235C53.88 94.4035 53.7256 94.2448 53.5225 94.1475C53.3193 94.0459 53.0697 93.9951 52.7734 93.9951C52.4814 93.9951 52.2148 94.0565 51.9736 94.1792C51.7367 94.3019 51.5314 94.4712 51.3579 94.687C51.1886 94.9028 51.0553 95.1504 50.958 95.4297C50.8649 95.7048 50.8184 95.9967 50.8184 96.3057ZM59.959 100.127C59.4808 100.127 59.047 100.047 58.6577 99.8857C58.2726 99.7207 57.9404 99.4901 57.6611 99.1938C57.3861 98.8976 57.1745 98.5464 57.0264 98.1401C56.8783 97.7339 56.8042 97.2896 56.8042 96.8071V96.5405C56.8042 95.9819 56.8867 95.4847 57.0518 95.0488C57.2168 94.6087 57.4411 94.2363 57.7246 93.9316C58.0081 93.627 58.3298 93.3963 58.6895 93.2397C59.0492 93.0832 59.4215 93.0049 59.8066 93.0049C60.2975 93.0049 60.7207 93.0895 61.0762 93.2588C61.4359 93.4281 61.73 93.665 61.9585 93.9697C62.187 94.2702 62.3563 94.6257 62.4663 95.0361C62.5763 95.4424 62.6313 95.8867 62.6313 96.3691V96.896H57.5024V95.9375H61.457V95.8486C61.4401 95.5439 61.3766 95.2477 61.2666 94.96C61.1608 94.6722 60.9915 94.4352 60.7588 94.249C60.526 94.0628 60.2087 93.9697 59.8066 93.9697C59.54 93.9697 59.2946 94.0269 59.0703 94.1411C58.846 94.2511 58.6535 94.4162 58.4927 94.6362C58.3319 94.8563 58.207 95.125 58.1182 95.4424C58.0293 95.7598 57.9849 96.1258 57.9849 96.5405V96.8071C57.9849 97.133 58.0293 97.4398 58.1182 97.7275C58.2113 98.0111 58.3446 98.2607 58.5181 98.4766C58.6958 98.6924 58.9095 98.8617 59.1592 98.9844C59.4131 99.1071 59.7008 99.1685 60.0225 99.1685C60.4372 99.1685 60.7884 99.0838 61.0762 98.9146C61.3639 98.7453 61.6157 98.5189 61.8315 98.2354L62.5425 98.8003C62.3944 99.0246 62.2061 99.2383 61.9775 99.4414C61.749 99.6445 61.4676 99.8096 61.1333 99.9365C60.8032 100.063 60.4118 100.127 59.959 100.127ZM68.0015 98.1782C68.0015 98.009 67.9634 97.8524 67.8872 97.7085C67.8153 97.5604 67.665 97.4271 67.4365 97.3086C67.2122 97.1859 66.8737 97.0801 66.4209 96.9912C66.04 96.9108 65.6951 96.8156 65.3862 96.7056C65.0815 96.5955 64.8213 96.4622 64.6055 96.3057C64.3939 96.1491 64.231 95.965 64.1167 95.7534C64.0024 95.5418 63.9453 95.2943 63.9453 95.0107C63.9453 94.7399 64.0046 94.4839 64.123 94.2427C64.2458 94.0015 64.4172 93.7878 64.6372 93.6016C64.8615 93.4154 65.1302 93.2694 65.4434 93.1636C65.7565 93.0578 66.1056 93.0049 66.4907 93.0049C67.0409 93.0049 67.5106 93.1022 67.8999 93.2969C68.2892 93.4915 68.5876 93.7518 68.7949 94.0776C69.0023 94.3993 69.106 94.7568 69.106 95.1504H67.9316C67.9316 94.96 67.8745 94.7759 67.7603 94.5981C67.6502 94.4162 67.4873 94.266 67.2715 94.1475C67.0599 94.029 66.7996 93.9697 66.4907 93.9697C66.1649 93.9697 65.9004 94.0205 65.6973 94.1221C65.4984 94.2194 65.3524 94.3442 65.2593 94.4966C65.1704 94.6489 65.126 94.8097 65.126 94.979C65.126 95.106 65.1471 95.2202 65.1895 95.3218C65.236 95.4191 65.3164 95.5101 65.4307 95.5947C65.5449 95.6751 65.7057 95.7513 65.9131 95.8232C66.1204 95.8952 66.3849 95.9671 66.7065 96.0391C67.2694 96.166 67.7327 96.3184 68.0967 96.4961C68.4606 96.6738 68.7314 96.8918 68.9092 97.1499C69.0869 97.408 69.1758 97.7212 69.1758 98.0894C69.1758 98.3898 69.1123 98.6649 68.9854 98.9146C68.8626 99.1642 68.6828 99.38 68.4458 99.562C68.2131 99.7397 67.9338 99.8794 67.6079 99.981C67.2863 100.078 66.9245 100.127 66.5225 100.127C65.9173 100.127 65.4053 100.019 64.9863 99.8032C64.5674 99.5874 64.25 99.3081 64.0342 98.9653C63.8184 98.6226 63.7104 98.2607 63.7104 97.8799H64.8911C64.908 98.2015 65.0011 98.4575 65.1704 98.6479C65.3397 98.8341 65.547 98.9674 65.7925 99.0479C66.0379 99.124 66.2812 99.1621 66.5225 99.1621C66.8441 99.1621 67.1128 99.1198 67.3286 99.0352C67.5487 98.9505 67.7158 98.8341 67.8301 98.686C67.9443 98.5379 68.0015 98.3687 68.0015 98.1782ZM71.9941 93.1318V100H70.8135V93.1318H71.9941ZM70.7246 91.3101C70.7246 91.1196 70.7817 90.9588 70.896 90.8276C71.0145 90.6965 71.188 90.6309 71.4165 90.6309C71.6408 90.6309 71.8122 90.6965 71.9307 90.8276C72.0534 90.9588 72.1147 91.1196 72.1147 91.3101C72.1147 91.492 72.0534 91.6486 71.9307 91.7798C71.8122 91.9067 71.6408 91.9702 71.4165 91.9702C71.188 91.9702 71.0145 91.9067 70.896 91.7798C70.7817 91.6486 70.7246 91.492 70.7246 91.3101ZM77.9292 98.8257V95.29C77.9292 95.0192 77.8742 94.7843 77.7642 94.5854C77.6584 94.3823 77.4976 94.2257 77.2817 94.1157C77.0659 94.0057 76.7993 93.9507 76.4819 93.9507C76.1857 93.9507 75.9255 94.0015 75.7012 94.103C75.4811 94.2046 75.3076 94.3379 75.1807 94.5029C75.0579 94.668 74.9966 94.8457 74.9966 95.0361H73.8223C73.8223 94.7907 73.8857 94.5474 74.0127 94.3062C74.1396 94.0649 74.3216 93.847 74.5586 93.6523C74.7998 93.4535 75.0876 93.2969 75.4219 93.1826C75.7604 93.0641 76.137 93.0049 76.5518 93.0049C77.0511 93.0049 77.4912 93.0895 77.8721 93.2588C78.2572 93.4281 78.5576 93.6841 78.7734 94.0269C78.9935 94.3654 79.1035 94.7907 79.1035 95.3027V98.502C79.1035 98.7305 79.1226 98.9738 79.1606 99.2319C79.203 99.4901 79.2643 99.7122 79.3447 99.8984V100H78.1196C78.0604 99.8646 78.0138 99.6847 77.98 99.4604C77.9461 99.2319 77.9292 99.0203 77.9292 98.8257ZM78.1323 95.8359L78.145 96.6611H76.958C76.6237 96.6611 76.3254 96.6886 76.063 96.7437C75.8006 96.7944 75.5806 96.8727 75.4028 96.9785C75.2251 97.0843 75.0897 97.2176 74.9966 97.3784C74.9035 97.535 74.8569 97.7191 74.8569 97.9307C74.8569 98.1465 74.9056 98.3433 75.0029 98.521C75.1003 98.6987 75.2463 98.8405 75.4409 98.9463C75.6398 99.0479 75.8831 99.0986 76.1709 99.0986C76.5306 99.0986 76.848 99.0225 77.123 98.8701C77.3981 98.7178 77.616 98.5316 77.7769 98.3115C77.9419 98.0915 78.0308 97.8778 78.0435 97.6704L78.5449 98.2354C78.5153 98.4131 78.4349 98.6099 78.3037 98.8257C78.1725 99.0415 77.9969 99.2489 77.7769 99.4478C77.561 99.6424 77.3029 99.8053 77.0024 99.9365C76.7062 100.063 76.3719 100.127 75.9995 100.127C75.534 100.127 75.1257 100.036 74.7744 99.854C74.4274 99.672 74.1566 99.4287 73.9619 99.124C73.7715 98.8151 73.6763 98.4702 73.6763 98.0894C73.6763 97.7212 73.7482 97.3975 73.8921 97.1182C74.036 96.8346 74.2433 96.5998 74.5142 96.4136C74.785 96.2231 75.1108 96.0793 75.4917 95.9819C75.8726 95.8846 76.2979 95.8359 76.7676 95.8359H78.1323Z" fill="#E85D04"/>
</svg>
