<svg width="51" height="46" viewBox="0 0 51 46" fill="none" xmlns="http://www.w3.org/2000/svg">
<path d="M2.65302 14.8033C1.1878 11.8311 2.40942 8.2339 5.38159 6.76868L8.96931 5L26.6561 40.8772L17.6868 45.2989L2.65302 14.8033Z" fill="#E85D04"/>
<path d="M16.981 14.8033C15.5158 11.8311 16.7374 8.23391 19.7096 6.76869L23.2973 5.00001L40.9841 40.8773L32.0148 45.299L16.981 14.8033Z" fill="#E85D04"/>
<path d="M28.981 31.4957C27.5158 34.4678 28.7374 38.065 31.7096 39.5303L35.2973 41.2989L50.4211 10.6206L41.4518 6.19894L28.981 31.4957Z" fill="#E85D04"/>
<path d="M36.0842 2.0679L36.0832 2.0669C35.5972 1.59177 35.0242 1.21467 34.3957 0.956176L34.3942 0.955588C33.7402 0.684248 33.046 0.546875 32.328 0.546875C31.6101 0.546875 30.9156 0.684234 30.2611 0.95431L36.0842 2.0679ZM36.0842 2.0679C36.5675 2.53772 36.9542 3.09761 37.2224 3.71599L36.0842 2.0679ZM28.5721 2.06605L28.572 2.06613C28.0889 2.53635 27.7022 3.09634 27.4335 3.7147C27.1562 4.35482 27.0155 5.03392 27.0155 5.73438C27.0155 6.7559 27.2597 7.7795 27.7474 8.77542C28.1402 9.57716 28.6931 10.3668 29.3985 11.1248L28.5721 2.06605ZM28.5721 2.06605C29.0612 1.58988 29.6279 1.2159 30.2609 0.95438L28.5721 2.06605ZM32.2305 13.4256L32.2307 13.4257C32.2594 13.4427 32.2922 13.4516 32.3256 13.4516L32.3264 13.4516C32.362 13.4516 32.3936 13.4427 32.421 13.4264L32.4224 13.4256C32.774 13.2182 34.0449 12.4231 35.2543 11.1248L35.2545 11.1246C35.9595 10.3686 36.5126 9.57743 36.9056 8.77534L36.9062 8.77409C37.3964 7.78049 37.6405 6.75894 37.6405 5.73594C37.6405 5.03543 37.4998 4.35628 37.2224 3.71612L32.2305 13.4256ZM32.2305 13.4256C31.8789 13.2182 30.6081 12.4232 29.3987 11.125L32.2305 13.4256ZM30.078 5.85908C30.0781 5.28217 30.2959 4.73759 30.6873 4.31967C30.3095 4.7221 30.0781 5.26357 30.078 5.85908ZM30.078 5.85908C30.078 5.85892 30.078 5.85876 30.078 5.8586L30.578 5.85938L30.078 5.85908ZM32.0597 13.1751L32.328 13.3456L32.5963 13.1751C33.132 12.8344 34.3481 11.9927 35.4354 10.7407C36.5207 9.49108 37.5155 7.7879 37.5155 5.73594C37.5155 4.38213 36.9738 3.11004 35.9962 2.15643C35.0155 1.19825 33.7114 0.671875 32.328 0.671875C30.9446 0.671875 29.6407 1.19821 28.6601 2.15456L28.6598 2.15486C27.6823 3.10987 27.1405 4.3819 27.1405 5.73594C27.1405 7.7879 28.1353 9.49108 29.2206 10.7407C30.3079 11.9927 31.524 12.8344 32.0597 13.1751ZM30.2487 6.72061C30.2524 6.72942 30.2561 6.7382 30.2599 6.74696C30.1937 6.59304 30.1442 6.43027 30.1137 6.26091C30.1421 6.41814 30.1873 6.57227 30.2487 6.72061ZM33.1892 7.93864C33.197 7.93542 33.2047 7.93217 33.2124 7.92887C33.0605 7.9939 32.8999 8.04268 32.733 8.07303C32.889 8.04459 33.042 7.99962 33.1892 7.93864Z" fill="#E85D04" stroke="#E85D04"/>
</svg>
