<svg width="21" height="21" viewBox="0 0 21 21" fill="none" xmlns="http://www.w3.org/2000/svg">
<path fill-rule="evenodd" clip-rule="evenodd" d="M17.0104 3.98263C16.161 3.13281 15.1519 2.4594 14.0412 2.00114C12.9305 1.54289 11.7401 1.30886 10.5386 1.31251C5.49609 1.31251 1.39125 5.39685 1.3892 10.418C1.38697 12.0168 1.80842 13.5877 2.61064 14.9707L1.3125 19.6875L6.1626 18.4214C7.50513 19.1487 9.00799 19.5293 10.5349 19.5288H10.5386C15.5806 19.5288 19.685 15.444 19.6875 10.4233C19.6906 9.22589 19.4554 8.03981 18.9958 6.93409C18.5363 5.82837 17.8614 4.82509 17.0104 3.98263ZM10.5386 17.9919H10.5353C9.17412 17.9923 7.83772 17.6281 6.66504 16.937L6.38736 16.7729L3.5093 17.5243L4.27752 14.7316L4.09664 14.4445C3.33555 13.2395 2.93231 11.8432 2.93385 10.418C2.93385 6.24546 6.34676 2.8506 10.5414 2.8506C12.5536 2.847 14.4849 3.64283 15.9104 5.06303C17.3359 6.48323 18.1389 8.4115 18.1429 10.4237C18.1412 14.5967 14.7299 17.9919 10.5386 17.9919ZM14.7094 12.324C14.481 12.21 13.3559 11.6595 13.1476 11.5836C12.9392 11.5078 12.7854 11.4696 12.6332 11.6977C12.4811 11.9257 12.0426 12.436 11.9093 12.5898C11.776 12.7436 11.6427 12.7604 11.4142 12.6464C11.1858 12.5323 10.4487 12.2924 9.57551 11.5172C8.89588 10.9139 8.43732 10.169 8.30402 9.94138C8.17072 9.71374 8.28967 9.59029 8.4041 9.47708C8.50705 9.37495 8.63256 9.2113 8.74699 9.07841C8.86143 8.94552 8.89957 8.85036 8.97545 8.69861C9.05133 8.54685 9.01359 8.41396 8.95658 8.30034C8.89957 8.18673 8.44225 7.06659 8.25193 6.61091C8.06613 6.16712 7.87787 6.22741 7.7376 6.22044C7.6043 6.21388 7.45049 6.21224 7.29914 6.21224C7.18344 6.21525 7.0696 6.24208 6.96474 6.29106C6.85987 6.34003 6.76622 6.4101 6.68965 6.49689C6.48006 6.72493 5.88943 7.27618 5.88943 8.39509C5.88943 9.514 6.70975 10.5968 6.82295 10.7486C6.93615 10.9003 8.43486 13.1984 10.728 14.184C11.1539 14.3664 11.589 14.5263 12.0315 14.6631C12.5791 14.8362 13.0774 14.812 13.4712 14.7533C13.9104 14.6881 14.8247 14.2029 15.0146 13.6713C15.2045 13.1398 15.2049 12.6845 15.1479 12.5898C15.0909 12.495 14.9383 12.4376 14.7094 12.324Z" fill="#5E3800"/>
</svg>
